<svg width="12" height="12" viewBox="0 0 12 12" fill="none" xmlns="http://www.w3.org/2000/svg">
<path d="M11.4061 4.2614L5.38686 10.2802C5.31722 10.3498 5.23453 10.4051 5.14353 10.4428C5.05252 10.4805 4.95498 10.4999 4.85647 10.4999C4.75797 10.4999 4.66043 10.4805 4.56942 10.4428C4.47842 10.4051 4.39573 10.3498 4.32608 10.2802L0.968896 6.90515C0.828493 6.76453 0.749634 6.57394 0.749634 6.37523C0.749634 6.17652 0.828493 5.98593 0.968896 5.84531L2.0939 4.72031C2.23407 4.5801 2.42405 4.5011 2.6223 4.50057C2.82055 4.50005 3.01095 4.57804 3.15186 4.7175L4.86936 6.37078L4.87452 6.37594L9.22124 2.09297C9.3618 1.95299 9.55209 1.8744 9.75046 1.8744C9.94883 1.8744 10.1391 1.95299 10.2797 2.09297L11.4047 3.19734C11.4749 3.26695 11.5307 3.34977 11.5688 3.44103C11.6069 3.53229 11.6266 3.63018 11.6268 3.72908C11.6269 3.82798 11.6075 3.92592 11.5696 4.01728C11.5317 4.10864 11.4761 4.19161 11.4061 4.2614Z" fill="#667085"/>
</svg>
