<svg width="20" height="21" viewBox="0 0 20 21" fill="none" xmlns="http://www.w3.org/2000/svg">
<path d="M17.5 9.22737V16.45C17.5 16.7815 17.3683 17.0995 17.1339 17.3339C16.8995 17.5683 16.5815 17.7 16.25 17.7H13.125C12.7935 17.7 12.4755 17.5683 12.2411 17.3339C12.0067 17.0995 11.875 16.7815 11.875 16.45V13.325C11.875 13.1593 11.8092 13.0003 11.6919 12.8831C11.5747 12.7659 11.4158 12.7 11.25 12.7H8.75C8.58424 12.7 8.42527 12.7659 8.30806 12.8831C8.19085 13.0003 8.125 13.1593 8.125 13.325V16.45C8.125 16.7815 7.9933 17.0995 7.75888 17.3339C7.52446 17.5683 7.20652 17.7 6.875 17.7H3.75C3.41848 17.7 3.10054 17.5683 2.86612 17.3339C2.6317 17.0995 2.5 16.7815 2.5 16.45V9.22737C2.49997 9.05437 2.53586 8.88325 2.60538 8.72483C2.67491 8.56642 2.77656 8.42416 2.90391 8.30706L9.15391 2.41018L9.1625 2.40159C9.39261 2.19232 9.69248 2.07635 10.0035 2.07635C10.3146 2.07635 10.6144 2.19232 10.8445 2.40159C10.8472 2.40465 10.8501 2.40752 10.8531 2.41018L17.1031 8.30706C17.2292 8.42478 17.3295 8.56731 17.3978 8.7257C17.4661 8.88408 17.5009 9.05489 17.5 9.22737Z" fill="#115E56"/>
</svg>
