<svg width="12" height="12" viewBox="0 0 12 12" fill="none" xmlns="http://www.w3.org/2000/svg">
<path d="M10.5938 4.12875C10.575 4.08187 10.5553 4.035 10.5352 3.98812C10.2327 3.29064 9.74327 2.69039 9.12094 2.25375H10.125C10.2245 2.25375 10.3198 2.21424 10.3902 2.14391C10.4605 2.07359 10.5 1.97821 10.5 1.87875C10.5 1.77929 10.4605 1.68391 10.3902 1.61358C10.3198 1.54326 10.2245 1.50375 10.125 1.50375H5.25C4.21317 1.50507 3.21475 1.89626 2.45301 2.59965C1.69126 3.30304 1.2219 4.26718 1.13813 5.30062C0.814201 5.38115 0.526387 5.56741 0.320244 5.82993C0.114102 6.09245 0.00140696 6.41622 0 6.75C0 6.84946 0.0395088 6.94484 0.109835 7.01517C0.180161 7.08549 0.275544 7.125 0.375 7.125C0.474456 7.125 0.569839 7.08549 0.640165 7.01517C0.710491 6.94484 0.75 6.84946 0.75 6.75C0.750087 6.61325 0.78756 6.47913 0.858364 6.36214C0.929169 6.24516 1.03061 6.14975 1.15172 6.08625C1.24506 6.92759 1.59588 7.71959 2.15625 8.35406L2.745 10.0022C2.79705 10.148 2.89293 10.2741 3.01949 10.3632C3.14605 10.4523 3.29708 10.5001 3.45187 10.5H4.04813C4.20284 10.5 4.35377 10.4522 4.48023 10.3631C4.6067 10.2739 4.70251 10.1479 4.75453 10.0022L4.84453 9.75H7.53047L7.62047 10.0022C7.67249 10.1479 7.7683 10.2739 7.89477 10.3631C8.02123 10.4522 8.17216 10.5 8.32687 10.5H8.92313C9.07784 10.5 9.22877 10.4522 9.35523 10.3631C9.4817 10.2739 9.57751 10.1479 9.62953 10.0022L10.3894 7.875H10.5C10.7984 7.875 11.0845 7.75647 11.2955 7.5455C11.5065 7.33452 11.625 7.04837 11.625 6.75V5.25C11.625 4.96783 11.519 4.69595 11.328 4.48827C11.137 4.28058 10.8749 4.15226 10.5938 4.12875ZM7.125 3.375H5.25C5.15054 3.375 5.05516 3.33549 4.98484 3.26516C4.91451 3.19484 4.875 3.09946 4.875 3C4.875 2.90054 4.91451 2.80516 4.98484 2.73483C5.05516 2.66451 5.15054 2.625 5.25 2.625H7.125C7.22446 2.625 7.31984 2.66451 7.39017 2.73483C7.46049 2.80516 7.5 2.90054 7.5 3C7.5 3.09946 7.46049 3.19484 7.39017 3.26516C7.31984 3.33549 7.22446 3.375 7.125 3.375ZM8.4375 6C8.32625 6 8.21749 5.96701 8.12499 5.9052C8.03249 5.84339 7.96039 5.75554 7.91782 5.65276C7.87524 5.54998 7.8641 5.43688 7.88581 5.32776C7.90751 5.21865 7.96109 5.11842 8.03975 5.03975C8.11842 4.96109 8.21865 4.90751 8.32776 4.88581C8.43688 4.8641 8.54998 4.87524 8.65276 4.91782C8.75554 4.96039 8.84339 5.03249 8.9052 5.12499C8.96701 5.21749 9 5.32625 9 5.4375C9 5.58668 8.94074 5.72976 8.83525 5.83525C8.72976 5.94074 8.58668 6 8.4375 6Z" fill="#667085"/>
</svg>
