<svg width="20" height="21" viewBox="0 0 20 21" fill="none" xmlns="http://www.w3.org/2000/svg">
<path d="M18 17.3242C18.0699 17.4171 18.1125 17.5276 18.123 17.6433C18.1336 17.759 18.1116 17.8754 18.0597 17.9793C18.0078 18.0833 17.9279 18.1707 17.829 18.2318C17.7301 18.2928 17.6162 18.3251 17.5 18.325H2.5C2.38393 18.325 2.27015 18.2927 2.17142 18.2317C2.07268 18.1706 1.99289 18.0833 1.94098 17.9795C1.88908 17.8757 1.8671 17.7595 1.87753 17.6439C1.88795 17.5283 1.93036 17.4179 2 17.325C2.55343 16.583 3.29142 15.9988 4.14063 15.6305C3.67514 15.2056 3.34898 14.65 3.20496 14.0364C3.06094 13.4229 3.10579 12.7802 3.33362 12.1926C3.56145 11.605 3.96161 11.1 4.48159 10.7439C5.00157 10.3878 5.61705 10.1973 6.24727 10.1973C6.87748 10.1973 7.49297 10.3878 8.01294 10.7439C8.53292 11.1 8.93308 11.605 9.16091 12.1926C9.38874 12.7802 9.43359 13.4229 9.28957 14.0364C9.14555 14.65 8.81939 15.2056 8.35391 15.6305C8.96658 15.8953 9.52333 16.2742 9.99453 16.7469C10.4657 16.2742 11.0225 15.8953 11.6352 15.6305C11.1697 15.2056 10.8435 14.65 10.6995 14.0364C10.5555 13.4229 10.6003 12.7802 10.8281 12.1926C11.056 11.605 11.4561 11.1 11.9761 10.7439C12.4961 10.3878 13.1116 10.1973 13.7418 10.1973C14.372 10.1973 14.9875 10.3878 15.5075 10.7439C16.0274 11.1 16.4276 11.605 16.6554 12.1926C16.8833 12.7802 16.9281 13.4229 16.7841 14.0364C16.6401 14.65 16.3139 15.2056 15.8484 15.6305C16.7016 15.9969 17.4435 16.5809 18 17.3242ZM2.125 10.075C2.19066 10.1243 2.26538 10.1601 2.34489 10.1805C2.4244 10.2008 2.50714 10.2053 2.58839 10.1937C2.66964 10.1821 2.74781 10.1546 2.81843 10.1128C2.88906 10.071 2.95075 10.0157 3 9.95001C3.37841 9.44546 3.86909 9.03595 4.4332 8.7539C4.9973 8.47185 5.61932 8.32501 6.25 8.32501C6.88068 8.32501 7.5027 8.47185 8.0668 8.7539C8.63091 9.03595 9.12159 9.44546 9.5 9.95001C9.55822 10.0276 9.63371 10.0906 9.72049 10.134C9.80728 10.1774 9.90297 10.2 10 10.2C10.097 10.2 10.1927 10.1774 10.2795 10.134C10.3663 10.0906 10.4418 10.0276 10.5 9.95001C10.8784 9.44546 11.3691 9.03595 11.9332 8.7539C12.4973 8.47185 13.1193 8.32501 13.75 8.32501C14.3807 8.32501 15.0027 8.47185 15.5668 8.7539C16.1309 9.03595 16.6216 9.44546 17 9.95001C17.0493 10.0157 17.111 10.071 17.1817 10.1128C17.2524 10.1546 17.3306 10.182 17.4119 10.1936C17.4932 10.2052 17.5759 10.2006 17.6555 10.1802C17.735 10.1598 17.8097 10.1239 17.8754 10.0746C17.9411 10.0253 17.9964 9.96357 18.0382 9.8929C18.08 9.82223 18.1074 9.74402 18.119 9.66273C18.1306 9.58144 18.126 9.49867 18.1056 9.41914C18.0852 9.33961 18.0493 9.26489 18 9.19923C17.4466 8.45745 16.7085 7.87351 15.8594 7.50548C16.3249 7.08063 16.651 6.52498 16.795 5.91144C16.9391 5.2979 16.8942 4.65516 16.6664 4.06757C16.4386 3.47998 16.0384 2.975 15.5184 2.61892C14.9984 2.26284 14.3829 2.0723 13.7527 2.0723C13.1225 2.0723 12.507 2.26284 11.9871 2.61892C11.4671 2.975 11.0669 3.47998 10.8391 4.06757C10.6113 4.65516 10.5664 5.2979 10.7104 5.91144C10.8544 6.52498 11.1806 7.08063 11.6461 7.50548C11.0334 7.7703 10.4767 8.14916 10.0055 8.62188C9.53427 8.14916 8.97751 7.7703 8.36484 7.50548C8.83033 7.08063 9.15649 6.52498 9.30051 5.91144C9.44453 5.2979 9.39968 4.65516 9.17185 4.06757C8.94402 3.47998 8.54386 2.975 8.02388 2.61892C7.5039 2.26284 6.88842 2.0723 6.2582 2.0723C5.62799 2.0723 5.0125 2.26284 4.49253 2.61892C3.97255 2.975 3.57239 3.47998 3.34456 4.06757C3.11673 4.65516 3.07188 5.2979 3.2159 5.91144C3.35992 6.52498 3.68608 7.08063 4.15156 7.50548C3.29838 7.87219 2.55645 8.45652 2 9.20001C1.95075 9.26567 1.91492 9.34038 1.89455 9.41989C1.87418 9.4994 1.86967 9.58214 1.88128 9.66339C1.89289 9.74465 1.92039 9.82282 1.9622 9.89344C2.00402 9.96406 2.05934 10.0258 2.125 10.075Z" fill="#CCFBEF"/>
</svg>
